<svg version="1.1" xmlns="http://www.w3.org/2000/svg" xmlns:xlink="http://www.w3.org/1999/xlink" width="2400" height="1600"><defs/><g transform="scale(2,2)"><g id="background-6e6b156b"><rect fill="white" stroke="none" x="0" y="0" width="1200" height="800" class="dcg-svg-background"/></g><g id="graphpaper-6e6b156b"><g id="axis-6e6b156b"><g id="yaxis-6e6b156b"><title>Y axis</title><g><path fill="none" stroke="rgb(0,0,0)" class="dcg-svg-axis-line" paint-order="fill stroke markers" d=" M 600 0 L 600 800" stroke-opacity="0.9" stroke-miterlimit="10" stroke-width="1.5" stroke-dasharray=""/></g></g><g id="xaxis-6e6b156b"><title>X axis</title><g><path fill="none" stroke="rgb(0,0,0)" class="dcg-svg-axis-line" paint-order="fill stroke markers" d=" M 0 720 L 1200 720" stroke-opacity="0.9" stroke-miterlimit="10" stroke-width="1.5" stroke-dasharray=""/></g></g><g><g class="dcg-svg-axis-value"><text fill="none" stroke="#ffffff" font-family="Arial" font-size="14px" font-style="normal" font-weight="normal" text-decoration="normal" x="591.1083333492279" y="735.808" text-anchor="middle" stroke-miterlimit="2" stroke-width="3" stroke-dasharray="">0</text><text fill="#000000" stroke="none" font-family="Arial" font-size="14px" font-style="normal" font-weight="normal" text-decoration="normal" x="591.1083333492279" y="735.808" text-anchor="middle">0</text></g><g><path fill="none" stroke="rgb(0,0,0)" class="dcg-svg-tickmark" paint-order="fill stroke markers" d=" M 0 717 L 0 723 M 150 717 L 150 723 M 300 717 L 300 723 M 450 717 L 450 723 M 750 717 L 750 723 M 900 717 L 900 723 M 1050 717 L 1050 723 M 1200 717 L 1200 723 M 597 560 L 603 560 M 597 400 L 603 400 M 597 240 L 603 240 M 597 80 L 603 80" stroke-opacity="0.9" stroke-miterlimit="2" stroke-width="1.5" stroke-dasharray=""/></g><g class="dcg-svg-axis-value dcg-svg-offcenter-axis-value"><text fill="none" stroke="#ffffff" font-family="Arial" font-size="14px" font-style="normal" font-weight="normal" text-decoration="normal" x="9.224999904632568" y="735.808" text-anchor="middle" stroke-miterlimit="2" stroke-width="3" stroke-dasharray="">-4</text><text fill="#000000" stroke="none" font-family="Arial" font-size="14px" font-style="normal" font-weight="normal" text-decoration="normal" x="9.224999904632568" y="735.808" text-anchor="middle">-4</text></g><g class="dcg-svg-axis-value"><text fill="none" stroke="#ffffff" font-family="Arial" font-size="14px" font-style="normal" font-weight="normal" text-decoration="normal" x="147.66666674613953" y="735.808" text-anchor="middle" stroke-miterlimit="2" stroke-width="3" stroke-dasharray="">-3</text><text fill="#000000" stroke="none" font-family="Arial" font-size="14px" font-style="normal" font-weight="normal" text-decoration="normal" x="147.66666674613953" y="735.808" text-anchor="middle">-3</text></g><g class="dcg-svg-axis-value"><text fill="none" stroke="#ffffff" font-family="Arial" font-size="14px" font-style="normal" font-weight="normal" text-decoration="normal" x="297.6666667461395" y="735.808" text-anchor="middle" stroke-miterlimit="2" stroke-width="3" stroke-dasharray="">-2</text><text fill="#000000" stroke="none" font-family="Arial" font-size="14px" font-style="normal" font-weight="normal" text-decoration="normal" x="297.6666667461395" y="735.808" text-anchor="middle">-2</text></g><g class="dcg-svg-axis-value"><text fill="none" stroke="#ffffff" font-family="Arial" font-size="14px" font-style="normal" font-weight="normal" text-decoration="normal" x="447.6666667461395" y="735.808" text-anchor="middle" stroke-miterlimit="2" stroke-width="3" stroke-dasharray="">-1</text><text fill="#000000" stroke="none" font-family="Arial" font-size="14px" font-style="normal" font-weight="normal" text-decoration="normal" x="447.6666667461395" y="735.808" text-anchor="middle">-1</text></g><g class="dcg-svg-axis-value"><text fill="none" stroke="#ffffff" font-family="Arial" font-size="14px" font-style="normal" font-weight="normal" text-decoration="normal" x="750" y="735.808" text-anchor="middle" stroke-miterlimit="2" stroke-width="3" stroke-dasharray="">1</text><text fill="#000000" stroke="none" font-family="Arial" font-size="14px" font-style="normal" font-weight="normal" text-decoration="normal" x="750" y="735.808" text-anchor="middle">1</text></g><g class="dcg-svg-axis-value"><text fill="none" stroke="#ffffff" font-family="Arial" font-size="14px" font-style="normal" font-weight="normal" text-decoration="normal" x="900" y="735.808" text-anchor="middle" stroke-miterlimit="2" stroke-width="3" stroke-dasharray="">2</text><text fill="#000000" stroke="none" font-family="Arial" font-size="14px" font-style="normal" font-weight="normal" text-decoration="normal" x="900" y="735.808" text-anchor="middle">2</text></g><g class="dcg-svg-axis-value"><text fill="none" stroke="#ffffff" font-family="Arial" font-size="14px" font-style="normal" font-weight="normal" text-decoration="normal" x="1050" y="735.808" text-anchor="middle" stroke-miterlimit="2" stroke-width="3" stroke-dasharray="">3</text><text fill="#000000" stroke="none" font-family="Arial" font-size="14px" font-style="normal" font-weight="normal" text-decoration="normal" x="1050" y="735.808" text-anchor="middle">3</text></g><g class="dcg-svg-axis-value dcg-svg-offcenter-axis-value"><text fill="none" stroke="#ffffff" font-family="Arial" font-size="14px" font-style="normal" font-weight="normal" text-decoration="normal" x="1193.108333349228" y="735.808" text-anchor="middle" stroke-miterlimit="2" stroke-width="3" stroke-dasharray="">4</text><text fill="#000000" stroke="none" font-family="Arial" font-size="14px" font-style="normal" font-weight="normal" text-decoration="normal" x="1193.108333349228" y="735.808" text-anchor="middle">4</text></g><g class="dcg-svg-axis-value"><text fill="none" stroke="#ffffff" font-family="Arial" font-size="14px" font-style="normal" font-weight="normal" text-decoration="normal" x="585.2749996185303" y="563.808" text-anchor="middle" stroke-miterlimit="2" stroke-width="3" stroke-dasharray="">0.1</text><text fill="#000000" stroke="none" font-family="Arial" font-size="14px" font-style="normal" font-weight="normal" text-decoration="normal" x="585.2749996185303" y="563.808" text-anchor="middle">0.1</text></g><g class="dcg-svg-axis-value"><text fill="none" stroke="#ffffff" font-family="Arial" font-size="14px" font-style="normal" font-weight="normal" text-decoration="normal" x="585.2749996185303" y="403.808" text-anchor="middle" stroke-miterlimit="2" stroke-width="3" stroke-dasharray="">0.2</text><text fill="#000000" stroke="none" font-family="Arial" font-size="14px" font-style="normal" font-weight="normal" text-decoration="normal" x="585.2749996185303" y="403.808" text-anchor="middle">0.2</text></g><g class="dcg-svg-axis-value"><text fill="none" stroke="#ffffff" font-family="Arial" font-size="14px" font-style="normal" font-weight="normal" text-decoration="normal" x="585.2749996185303" y="243.808" text-anchor="middle" stroke-miterlimit="2" stroke-width="3" stroke-dasharray="">0.3</text><text fill="#000000" stroke="none" font-family="Arial" font-size="14px" font-style="normal" font-weight="normal" text-decoration="normal" x="585.2749996185303" y="243.808" text-anchor="middle">0.3</text></g><g class="dcg-svg-axis-value"><text fill="none" stroke="#ffffff" font-family="Arial" font-size="14px" font-style="normal" font-weight="normal" text-decoration="normal" x="585.2749996185303" y="83.808" text-anchor="middle" stroke-miterlimit="2" stroke-width="3" stroke-dasharray="">0.4</text><text fill="#000000" stroke="none" font-family="Arial" font-size="14px" font-style="normal" font-weight="normal" text-decoration="normal" x="585.2749996185303" y="83.808" text-anchor="middle">0.4</text></g></g></g></g><g id="expressions-6e6b156b"><g id="sketch-6e6b156b"><title>Expression 1</title><path fill="#c74440" stroke="none" paint-order="stroke fill markers" d="" fill-opacity="0.4"/><g><path fill="none" stroke="#c74440" class="dcg-svg-curve" paint-order="fill stroke markers" d=" M 0 719.7858716387761 L 0 719.7858716387761 L 49.21875 719.2461128817979 L 80.859375 718.4003638684997 L 104.8828125 717.250986981628 L 124.51171875 715.8019588307552 L 141.2109375 714.0622960915096 L 156.15234375 711.9873134105048 L 169.62890625 709.5892761739532 L 181.93359375 706.8709013093985 L 193.65234375 703.7267573621037 L 204.4921875 700.2593987555085 L 215.0390625 696.2970418927646 L 225.29296875 691.817498245977 L 235.25390625 686.8055627076794 L 244.921875 681.2538248568228 L 254.58984375 674.9610543610672 L 264.2578125 667.8633113340339 L 274.21875 659.6416156157225 L 284.1796875 650.4308622122352 L 294.140625 640.1673606239045 L 303.80859375 629.1436867720455 L 313.4765625 617.0264740771896 L 323.14453125 603.777046166213 L 332.8125 589.3666435137712 L 342.48046875 573.7782039463162 L 352.44140625 556.4815598975003 L 362.6953125 537.3797359592802 L 373.2421875 516.396681130874 L 384.375 492.8484876716551 L 396.38671875 465.9519806628209 L 409.5703125 434.86419439733965 L 424.8046875 397.2929729770632 L 445.60546875 344.1859975809136 L 478.125 261.14133189373683 L 492.1875 226.99486304609593 L 503.90625 200.10847725338272 L 514.16015625 178.10275302231048 L 523.2421875 160.02489047062159 L 531.73828125 144.48095239898555 L 539.6484375 131.32153872199933 L 546.97265625 120.35745073334681 L 554.00390625 111.00738659957085 L 560.7421875 103.18322236568838 L 567.1875 96.78311153934567 L 573.33984375 91.69506054611384 L 578.90625 87.97264293157275 L 584.1796875 85.23265469551188 L 588.8671875 83.4479667989134 L 593.5546875 82.28133745957518 L 597.94921875 81.75200485588039 L 602.34375 81.7702650162795 L 606.73828125 82.33607094249555 L 611.1328125 83.4479667989134 L 615.8203125 85.23265469551188 L 620.80078125 87.80023341851779 L 626.07421875 91.26348963074281 L 631.640625 95.7361843143077 L 637.79296875 101.63420328288703 L 644.23828125 108.85703391517131 L 650.9765625 117.5085419125046 L 658.0078125 127.68139204674299 L 665.33203125 139.45353856393172 L 673.2421875 153.4240810783872 L 681.73828125 169.7622541016966 L 691.11328125 189.22420103494596 L 701.3671875 212.00062051200115 L 713.0859375 239.59328976300367 L 727.44140625 275.07651214480484 L 748.53515625 329.06616867861936 L 778.41796875 405.36255530266794 L 794.23828125 443.9977428270857 L 807.71484375 475.3001256573932 L 819.7265625 501.68548136432867 L 831.15234375 525.3008013060652 L 841.9921875 546.2735076920137 L 852.24609375 564.7770020873579 L 862.20703125 581.4839177209464 L 872.16796875 596.9365219922481 L 881.8359375 610.7459365997863 L 891.50390625 623.4078432533759 L 901.171875 634.9563327060234 L 910.83984375 645.4344976889387 L 920.80078125 655.1639561763432 L 931.0546875 664.1132732415361 L 941.30859375 672.0519023533478 L 951.26953125 678.866862035545 L 961.23046875 684.8684625681085 L 971.19140625 690.1264164790105 L 981.4453125 694.8344664194241 L 991.9921875 699.0067505932764 L 1002.83203125 702.6647956715827 L 1014.2578125 705.9126793523639 L 1026.26953125 708.7438388598503 L 1039.16015625 711.2153481592912 L 1053.22265625 713.353193851749 L 1068.75 715.164387143682 L 1086.328125 716.6701392628403 L 1106.8359375 717.8823295252096 L 1131.73828125 718.8080569089492 L 1163.96484375 719.4561590262037 L 1200 719.7858716387761" stroke-linecap="round" stroke-linejoin="round" stroke-miterlimit="10" stroke-width="2.5" stroke-dasharray=""/></g>

<path fill="#c74440" stroke="none" class="dcg-svg-region" paint-order="stroke fill markers" d=" M 0 719.7858716387761 L 49.208955223880594 719.2462936197107 L 80.84328358208961 718.4009576738783 L 104.86194029850742 717.2522493321394 L 124.48694029850742 715.8041565679902 L 141.18283582089555 714.0656975895095 L 156.12126865671632 711.9922238922682 L 169.59514925373134 709.5959963727631 L 181.89738805970148 706.8797310353402 L 193.61380597014926 703.7380799446547 L 204.4514925373134 700.2735156961395 L 214.99626865671644 696.3143912398408 L 225.24813432835822 691.8385343004244 L 235.2070895522388 686.83074743703 L 244.87313432835822 681.283618562607 L 254.53917910447757 674.9960737661573 L 264.20522388059703 667.9042112316478 L 274.16417910447757 659.6892924100409 L 284.1231343283582 650.4860696553224 L 294.0820895522388 640.2308655586869 L 303.7481343283582 629.2159771548578 L 313.4141791044776 617.1082540556688 L 323.08022388059703 603.8689856040745 L 332.74626865671644 589.4693586143102 L 342.41231343283584 573.8922361664344 L 352.37126865671644 556.6077156377474 L 353.25 555.0227022528297 L 353.25 720 L 0 720 L 0 719.7858716387761" fill-opacity="0.4"/>

<path fill="#c74440" stroke="none" class="dcg-svg-region" paint-order="stroke fill markers" d=" M 846.75 555.0227022528297 L 857.0018656716418 572.9101669554457 L 866.9608208955224 589.0146786335565 L 876.6268656716418 603.4497989690824 L 886.2929104477612 616.7238609722133 L 895.9589552238806 628.8653500926628 L 905.625 639.91270317708 L 915.5839552238806 650.1997616842125 L 925.5429104477612 659.4330379957989 L 935.794776119403 667.9042112316478 L 945.7537313432836 675.198100574834 L 955.7126865671642 681.6402427408613 L 965.6716417910447 687.3005168301402 L 975.6305970149253 692.24817543697 L 985.8824626865671 696.6682693705943 L 996.4272388059701 700.5762427815409 L 1007.5578358208955 704.0790804277682 L 1019.2742537313433 707.1626879545702 L 1031.5764925373135 709.8268923614695 L 1044.7574626865671 712.1299819074908 L 1059.402985074627 714.1362116508399 L 1075.8059701492537 715.8300580056969 L 1094.55223880597 717.2166181923739 L 1116.5205223880598 718.300936799537 L 1144.0541044776119 719.1120531324497 L 1181.2537313432836 719.6497431436336 L 1200 719.7858716387761 L 1200 720 L 846.75 720 L 846.75 555.0227022528297" fill-opacity="0.4"/></g></g><g id="labels-6e6b156b"/><g id="labels-6e6b156b"/></g></svg>