<svg version="1.1" xmlns="http://www.w3.org/2000/svg" xmlns:xlink="http://www.w3.org/1999/xlink" width="1200" height="800"><defs/><g transform="scale(2,2)"><g id="background-0443f585"><rect fill="white" stroke="none" x="0" y="0" width="600" height="400" class="dcg-svg-background"/></g><g id="graphpaper-0443f585"><g id="axis-0443f585"><g id="yaxis-0443f585"><title>Y axis</title><g><path fill="none" stroke="rgb(0,0,0)" class="dcg-svg-axis-line" paint-order="fill stroke markers" d=" M 300 0 L 300 400" stroke-opacity="0.9" stroke-miterlimit="10" stroke-width="1.5" stroke-dasharray=""/></g></g><g id="xaxis-0443f585"><title>X axis</title><g><path fill="none" stroke="rgb(0,0,0)" class="dcg-svg-axis-line" paint-order="fill stroke markers" d=" M 0 360 L 600 360" stroke-opacity="0.9" stroke-miterlimit="10" stroke-width="1.5" stroke-dasharray=""/></g></g><g><g class="dcg-svg-axis-value"><text fill="none" stroke="#ffffff" font-family="Arial" font-size="14px" font-style="normal" font-weight="normal" text-decoration="normal" x="291.1083333492279" y="375.808" text-anchor="middle" stroke-miterlimit="2" stroke-width="3" stroke-dasharray="">0</text><text fill="#000000" stroke="none" font-family="Arial" font-size="14px" font-style="normal" font-weight="normal" text-decoration="normal" x="291.1083333492279" y="375.808" text-anchor="middle">0</text></g><g><path fill="none" stroke="rgb(0,0,0)" class="dcg-svg-tickmark" paint-order="fill stroke markers" d=" M 0 357 L 0 363 M 150 357 L 150 363 M 450 357 L 450 363 M 600 357 L 600 363 M 297 200 L 303 200 M 297 40 L 303 40" stroke-opacity="0.9" stroke-miterlimit="2" stroke-width="1.5" stroke-dasharray=""/></g><g class="dcg-svg-axis-value dcg-svg-offcenter-axis-value"><text fill="none" stroke="#ffffff" font-family="Arial" font-size="14px" font-style="normal" font-weight="normal" text-decoration="normal" x="9.224999904632568" y="375.808" text-anchor="middle" stroke-miterlimit="2" stroke-width="3" stroke-dasharray="">-4</text><text fill="#000000" stroke="none" font-family="Arial" font-size="14px" font-style="normal" font-weight="normal" text-decoration="normal" x="9.224999904632568" y="375.808" text-anchor="middle">-4</text></g><g class="dcg-svg-axis-value"><text fill="none" stroke="#ffffff" font-family="Arial" font-size="14px" font-style="normal" font-weight="normal" text-decoration="normal" x="147.66666674613953" y="375.808" text-anchor="middle" stroke-miterlimit="2" stroke-width="3" stroke-dasharray="">-2</text><text fill="#000000" stroke="none" font-family="Arial" font-size="14px" font-style="normal" font-weight="normal" text-decoration="normal" x="147.66666674613953" y="375.808" text-anchor="middle">-2</text></g><g class="dcg-svg-axis-value"><text fill="none" stroke="#ffffff" font-family="Arial" font-size="14px" font-style="normal" font-weight="normal" text-decoration="normal" x="450" y="375.808" text-anchor="middle" stroke-miterlimit="2" stroke-width="3" stroke-dasharray="">2</text><text fill="#000000" stroke="none" font-family="Arial" font-size="14px" font-style="normal" font-weight="normal" text-decoration="normal" x="450" y="375.808" text-anchor="middle">2</text></g><g class="dcg-svg-axis-value dcg-svg-offcenter-axis-value"><text fill="none" stroke="#ffffff" font-family="Arial" font-size="14px" font-style="normal" font-weight="normal" text-decoration="normal" x="593.1083333492279" y="375.808" text-anchor="middle" stroke-miterlimit="2" stroke-width="3" stroke-dasharray="">4</text><text fill="#000000" stroke="none" font-family="Arial" font-size="14px" font-style="normal" font-weight="normal" text-decoration="normal" x="593.1083333492279" y="375.808" text-anchor="middle">4</text></g><g class="dcg-svg-axis-value"><text fill="none" stroke="#ffffff" font-family="Arial" font-size="14px" font-style="normal" font-weight="normal" text-decoration="normal" x="285.2749996185303" y="203.808" text-anchor="middle" stroke-miterlimit="2" stroke-width="3" stroke-dasharray="">0.2</text><text fill="#000000" stroke="none" font-family="Arial" font-size="14px" font-style="normal" font-weight="normal" text-decoration="normal" x="285.2749996185303" y="203.808" text-anchor="middle">0.2</text></g><g class="dcg-svg-axis-value"><text fill="none" stroke="#ffffff" font-family="Arial" font-size="14px" font-style="normal" font-weight="normal" text-decoration="normal" x="285.2749996185303" y="43.808" text-anchor="middle" stroke-miterlimit="2" stroke-width="3" stroke-dasharray="">0.4</text><text fill="#000000" stroke="none" font-family="Arial" font-size="14px" font-style="normal" font-weight="normal" text-decoration="normal" x="285.2749996185303" y="43.808" text-anchor="middle">0.4</text></g></g></g></g><g id="expressions-0443f585"><g id="sketch-0443f585"><title>Expression 1</title><path fill="#c74440" stroke="none" paint-order="stroke fill markers" d="" fill-opacity="0.4"/><g><path fill="none" stroke="#c74440" class="dcg-svg-curve" paint-order="fill stroke markers" d=" M 0 359.8929358193881 L 0 359.8929358193881 L 24.609375 359.62305644089895 L 40.4296875 359.2001819342498 L 52.44140625 358.625493490814 L 62.255859375 357.9009794153776 L 70.60546875 357.0311480457548 L 78.076171875 355.9936567052524 L 84.814453125 354.7946380869766 L 90.966796875 353.43545065469925 L 96.826171875 351.86337868105187 L 102.24609375 350.12969937775426 L 107.51953125 348.1485209463823 L 112.646484375 345.9087491229885 L 117.626953125 343.4027813538397 L 122.4609375 340.6269124284114 L 127.294921875 337.4805271805336 L 132.12890625 333.93165566701697 L 137.109375 329.82080780786123 L 142.08984375 325.2154311061176 L 147.0703125 320.08368031195226 L 151.904296875 314.57184338602275 L 156.73828125 308.5132370385948 L 161.572265625 301.8885230831065 L 166.40625 294.6833217568856 L 171.240234375 286.8891019731581 L 176.220703125 278.2407799487502 L 181.34765625 268.6898679796401 L 186.62109375 258.198340565437 L 192.1875 246.42424383582755 L 198.193359375 232.97599033141046 L 204.78515625 217.43209719866982 L 212.40234375 198.6464864885316 L 222.802734375 172.0929987904568 L 239.0625 130.57066594686842 L 246.09375 113.49743152304796 L 251.953125 100.05423862669136 L 257.080078125 89.05137651115524 L 261.62109375 80.01244523531079 L 265.869140625 72.24047619949278 L 269.82421875 65.66076936099967 L 273.486328125 60.178725366673405 L 277.001953125 55.503693299785425 L 280.37109375 51.59161118284419 L 283.59375 48.391555769672834 L 286.669921875 45.84753027305692 L 289.453125 43.986321465786375 L 292.08984375 42.61632734775594 L 294.43359375 41.7239833994567 L 296.77734375 41.14066872978759 L 298.974609375 40.87600242794019 L 301.171875 40.88513250813975 L 303.369140625 41.16803547124778 L 305.56640625 41.7239833994567 L 307.91015625 42.61632734775594 L 310.400390625 43.900116709258896 L 313.037109375 45.631744815371405 L 315.8203125 47.86809215715385 L 318.896484375 50.817101641443514 L 322.119140625 54.42851695758566 L 325.48828125 58.7542709562523 L 329.00390625 63.84069602337149 L 332.666015625 69.72676928196586 L 336.62109375 76.7120405391936 L 340.869140625 84.8811270508483 L 345.556640625 94.61210051747298 L 350.68359375 106.00031025600057 L 356.54296875 119.79664488150183 L 363.720703125 137.53825607240242 L 374.267578125 164.53308433930968 L 389.208984375 202.68127765133397 L 397.119140625 221.99887141354284 L 403.857421875 237.6500628286966 L 409.86328125 250.84274068216433 L 415.576171875 262.6504006530326 L 420.99609375 273.13675384600685 L 426.123046875 282.38850104367896 L 431.103515625 290.7419588604732 L 436.083984375 298.46826099612406 L 440.91796875 305.37296829989316 L 445.751953125 311.70392162668793 L 450.5859375 317.4781663530117 L 455.419921875 322.71724884446934 L 460.400390625 327.5819780881716 L 465.52734375 332.0566366207681 L 470.654296875 336.0259511766739 L 475.634765625 339.4334310177725 L 480.615234375 342.43423128405425 L 485.595703125 345.06320823950523 L 490.72265625 347.41723320971204 L 495.99609375 349.5033752966382 L 501.416015625 351.33239783579137 L 507.12890625 352.9563396761819 L 513.134765625 354.37191942992513 L 519.580078125 355.6076740796456 L 526.611328125 356.6765969258745 L 534.375 357.582193571841 L 543.1640625 358.33506963142014 L 553.41796875 358.9411647626048 L 565.869140625 359.4040284544746 L 581.982421875 359.7280795131019 L 600 359.8929358193881" stroke-linecap="round" stroke-linejoin="round" stroke-miterlimit="10" stroke-width="2.5" stroke-dasharray=""/></g>

<path fill="#c74440" stroke="none" class="dcg-svg-region" paint-order="stroke fill markers" d=" M 0 359.8929358193881 L 24.609375 359.62305644089895 L 40.4296875 359.2001819342498 L 52.44140625 358.625493490814 L 62.25585937499997 357.9009794153776 L 70.60546874999997 357.0311480457548 L 78.07617187499997 355.9936567052524 L 84.814453125 354.7946380869766 L 90.966796875 353.43545065469925 L 96.82617187500003 351.86337868105187 L 102.24609374999997 350.12969937775426 L 107.51953124999997 348.1485209463823 L 112.646484375 345.9087491229885 L 117.626953125 343.4027813538397 L 122.4609375 340.6269124284114 L 127.294921875 337.4805271805336 L 132.12890625 333.93165566701697 L 137.109375 329.82080780786123 L 142.08984375 325.2154311061176 L 147.0703125 320.08368031195226 L 151.904296875 314.57184338602275 L 156.73828125 308.5132370385948 L 161.572265625 301.8885230831065 L 166.40625 294.6833217568856 L 171.240234375 286.8891019731581 L 176.220703125 278.2407799487502 L 181.34765625 268.6898679796401 L 186.62109375 258.198340565437 L 192.1875 246.42424383582755 L 198.193359375 232.97599033141046 L 204.78515625 217.43209719866982 L 212.40234375 198.6464864885316 L 222.802734375 172.0929987904568 L 225 166.4234203846853 L 225 360 L 0 360 L 0 359.8929358193881" fill-opacity="0.4"/>

<path fill="#c74440" stroke="none" class="dcg-svg-region" paint-order="stroke fill markers" d=" M 375 166.4234203846853 L 389.208984375 202.68127765133397 L 397.119140625 221.99887141354284 L 403.857421875 237.6500628286966 L 409.86328125 250.84274068216433 L 415.576171875 262.6504006530326 L 420.99609375 273.13675384600685 L 426.123046875 282.38850104367896 L 431.103515625 290.7419588604732 L 436.083984375 298.46826099612406 L 440.91796875 305.37296829989316 L 445.751953125 311.70392162668793 L 450.5859375 317.4781663530117 L 455.419921875 322.71724884446934 L 460.400390625 327.5819780881716 L 465.52734375 332.0566366207681 L 470.654296875 336.0259511766739 L 475.634765625 339.4334310177725 L 480.615234375 342.43423128405425 L 485.595703125 345.06320823950523 L 490.72265625 347.41723320971204 L 495.99609375 349.5033752966382 L 501.416015625 351.33239783579137 L 507.12890625 352.9563396761819 L 513.134765625 354.37191942992513 L 519.580078125 355.6076740796456 L 526.611328125 356.6765969258745 L 534.375 357.582193571841 L 543.1640625 358.33506963142014 L 553.41796875 358.9411647626048 L 565.869140625 359.4040284544746 L 581.982421875 359.7280795131019 L 600 359.8929358193881 L 600 360 L 375 360 L 375 166.4234203846853" fill-opacity="0.4"/></g></g><g id="labels-0443f585"/><g id="labels-0443f585"/></g></svg>